<svg xmlns="http://www.w3.org/2000/svg">
    <defs>
        <style>
            rect, line { shape-rendering: crispEdges; }
            svg .icon { display: none }
            svg:target .icon { display: inline }
        </style>
    </defs>
    <svg id="star" viewBox="0 0 400 400">
        <g class="icon">
            <path stroke-width="15"
                  d="M 23.00,156.00
               C 23.00,156.00 151.00,149.00 151.00,149.00
                 151.00,149.00 204.00,26.00 204.00,26.00
                 204.00,26.00 251.00,148.00 251.00,148.00
                 251.00,148.00 378.00,160.00 378.00,160.00
                 378.00,160.00 281.00,243.00 281.00,243.00
                 281.00,243.00 311.00,369.00 311.00,369.00
                 311.00,369.00 200.00,299.00 200.00,299.00
                 200.00,299.00 89.00,368.00 89.00,368.00
                 89.00,368.00 122.00,243.00 122.00,243.00 Z"/>
        </g>
    </svg>
    <svg id="diamond" viewBox="0 0 400 400">
        <g class="icon">
            <path stroke-width="15"
                  d="M 4.26,120.26
               C 4.26,120.26 99.67,16.67 99.67,16.67
                 99.67,16.67 299.00,16.75 299.00,16.75
                 299.00,16.75 395.40,120.80 395.40,120.80
                 395.40,120.80 209.20,397.20 209.20,397.20
                 209.20,397.20 4.00,120.26 4.00,120.26
                 4.00,120.26 121.00,130.00 121.00,130.00
                 121.00,130.00 99.75,17.00 99.75,17.00
                 99.75,17.00 200.00,50.00 200.00,50.00
                 200.00,50.00 121.00,129.50 121.00,129.50
                 121.00,129.50 280.25,130.25 280.25,130.25
                 280.25,130.25 200.00,50.67 200.00,50.67
                 200.00,50.67 299.00,16.75 299.00,16.75
                 299.00,16.75 280.41,130.25 279.75,130.25
                 279.08,130.25 395.46,120.54 395.46,120.54"/>
        </g>
    </svg>
    <svg id="heart" viewBox="0 0 400 400">
        <g class="icon">
            <path stroke-width="15"
                  d="M 78.50,289.50
               C 122.63,340.09 197.29,389.97 200.00,391.67
                 200.00,391.67 273.47,341.51 319.33,287.67
                 350.37,251.24 351.62,247.99 354.33,244.67
                 363.13,233.89 375.33,208.00 379.67,193.33
                 384.00,180.33 385.23,157.01 387.80,142.58
                 389.07,135.41 388.12,109.56 386.90,104.00
                 380.27,73.67 363.37,51.04 336.00,36.40
                 330.84,33.64 322.63,30.06 317.00,28.61
                 317.00,28.61 302.70,23.74 285.00,24.00
                 277.62,24.11 255.18,31.23 248.00,34.34
                 233.04,40.81 225.39,56.34 215.50,69.00
                 211.51,74.11 205.39,86.92 200.50,91.00
                 191.93,71.22 171.75,43.18 152.00,34.35
                 145.90,31.62 139.42,29.81 133.00,28.08
                 126.42,26.31 119.83,24.01 113.00,24.00
                 113.00,24.00 98.66,25.33 93.00,26.53
                 78.51,29.59 64.27,34.44 52.08,43.24
                 38.32,53.18 23.98,71.04 17.95,87.00
                 15.50,93.48 13.96,100.26 12.53,107.00
                 10.94,114.47 10.00,141.00 10.00,141.00
                 10.10,146.99 18.00,184.67 18.00,184.67
                 18.00,184.67 26.50,210.00 26.50,210.00
                 34.60,222.66 45.58,251.77 78.50,289.50 Z"/>
        </g>
    </svg>

    <!-- bootstrap icons   -->
    <svg id="bi-award" viewBox="-1 -1 17.5 17.5">
        <g class="icon">
            <path d="m8 0 1.669.864 1.858.282.842 1.68 1.337 1.32L13.4 6l.306 1.854-1.337 1.32-.842 1.68-1.858.282L8 12l-1.669-.864-1.858-.282-.842-1.68-1.337-1.32L2.6 6l-.306-1.854 1.337-1.32.842-1.68L6.331.864 8 0z"/>
            <path d="M4 11.794V16l4-1 4 1v-4.206l-2.018.306L8 13.126 6.018 12.1 4 11.794z"/>
        </g>
    </svg>
    <svg id="bi-diamond" viewBox="-1 -1 17.5 17.5">
        <g class="icon">
            <path fill-rule="evenodd" d="M6.95.435c.58-.58 1.52-.58 2.1 0l6.515 6.516c.58.58.58 1.519 0 2.098L9.05 15.565c-.58.58-1.519.58-2.098 0L.435 9.05a1.482 1.482 0 0 1 0-2.098L6.95.435z"/>
        </g>
    </svg>
    <svg id="bi-gem" viewBox="-1 -1 17.5 17.5">
        <g class="icon">
            <path d="M3.1.7a.5.5 0 0 1 .4-.2h9a.5.5 0 0 1 .4.2l2.976 3.974c.149.185.156.45.01.644L8.4 15.3a.5.5 0 0 1-.8 0L.1 5.3a.5.5 0 0 1 0-.6l3-4zm11.386 3.785-1.806-2.41-.776 2.413 2.582-.003zm-3.633.004.961-2.989H4.186l.963 2.995 5.704-.006zM5.47 5.495 8 13.366l2.532-7.876-5.062.005zm-1.371-.999-.78-2.422-1.818 2.425 2.598-.003zM1.499 5.5l5.113 6.817-2.192-6.82L1.5 5.5zm7.889 6.817 5.123-6.83-2.928.002-2.195 6.828z"/>
        </g>
    </svg>
    <svg id="bi-star" viewBox="-1 -1 17.5 17.5">
        <g class="icon">
            <path d="M3.612 15.443c-.386.198-.824-.149-.746-.592l.83-4.73L.173 6.765c-.329-.314-.158-.888.283-.95l4.898-.696L7.538.792c.197-.39.73-.39.927 0l2.184 4.327 4.898.696c.441.062.612.636.282.95l-3.522 3.356.83 4.73c.078.443-.36.79-.746.592L8 13.187l-4.389 2.256z"/>
        </g>

    </svg>
    <svg id="bi-heart" viewBox="-1 -1 17.5 17.5">
        <g class="icon">
            <path fill-rule="evenodd" d="M8 1.314C12.438-3.248 23.534 4.735 8 15-7.534 4.736 3.562-3.248 8 1.314z"/>
        </g>
    </svg>
    <svg id="bi-suit-club" viewBox="-1 -1 17.5 17.5">
        <g class="icon">
            <path d="M11.5 12.5a3.493 3.493 0 0 1-2.684-1.254 19.92 19.92 0 0 0 1.582 2.907c.231.35-.02.847-.438.847H6.04c-.419 0-.67-.497-.438-.847a19.919 19.919 0 0 0 1.582-2.907 3.5 3.5 0 1 1-2.538-5.743 3.5 3.5 0 1 1 6.708 0A3.5 3.5 0 1 1 11.5 12.5z"/>
        </g>
    </svg>
    <svg id="bi-suit-diamond" viewBox="-1 -1 17.5 17.5">
        <g class="icon">
            <path d="M2.45 7.4 7.2 1.067a1 1 0 0 1 1.6 0L13.55 7.4a1 1 0 0 1 0 1.2L8.8 14.933a1 1 0 0 1-1.6 0L2.45 8.6a1 1 0 0 1 0-1.2z"/>
        </g>
    </svg>
    <svg id="bi-suit-heart" viewBox="-1 -1 17.5 17.5">
        <g class="icon">
            <path d="M4 1c2.21 0 4 1.755 4 3.92C8 2.755 9.79 1 12 1s4 1.755 4 3.92c0 3.263-3.234 4.414-7.608 9.608a.513.513 0 0 1-.784 0C3.234 9.334 0 8.183 0 4.92 0 2.755 1.79 1 4 1z"/>
        </g>
    </svg>
    <svg id="bi-suit-spade" viewBox="-1 -1 17.5 17.5">
        <g class="icon">
            <path d="M7.184 11.246A3.5 3.5 0 0 1 1 9c0-1.602 1.14-2.633 2.66-4.008C4.986 3.792 6.602 2.33 8 0c1.398 2.33 3.014 3.792 4.34 4.992C13.86 6.367 15 7.398 15 9a3.5 3.5 0 0 1-6.184 2.246 19.92 19.92 0 0 0 1.582 2.907c.231.35-.02.847-.438.847H6.04c-.419 0-.67-.497-.438-.847a19.919 19.919 0 0 0 1.582-2.907z"/>
        </g>
    </svg>
    <svg id="bi-x-diamond" viewBox="-1 -1 17.5 17.5">
        <g class="icon">
            <path d="M9.05.435c-.58-.58-1.52-.58-2.1 0L4.047 3.339 8 7.293l3.954-3.954L9.049.435zm3.61 3.611L8.708 8l3.954 3.954 2.904-2.905c.58-.58.58-1.519 0-2.098l-2.904-2.905zm-.706 8.614L8 8.708l-3.954 3.954 2.905 2.904c.58.58 1.519.58 2.098 0l2.905-2.904zm-8.614-.706L7.292 8 3.339 4.046.435 6.951c-.58.58-.58 1.519 0 2.098l2.904 2.905z"/>
        </g>
    </svg>
    <svg id="bi-triangle" viewBox="-1 -1 17.5 17.5">
        <g class="icon">
            <path fill-rule="evenodd" d="M7.022 1.566a1.13 1.13 0 0 1 1.96 0l6.857 11.667c.457.778-.092 1.767-.98 1.767H1.144c-.889 0-1.437-.99-.98-1.767L7.022 1.566z"/>
        </g>
    </svg>
    <svg id="bi-heptagon" viewBox="-1 -1 17.5 17.5">
        <g class="icon">
        <path fill-rule="evenodd" d="M7.779.052a.5.5 0 0 1 .442 0l6.015 2.97a.5.5 0 0 1 .267.34l1.485 6.676a.5.5 0 0 1-.093.415l-4.162 5.354a.5.5 0 0 1-.395.193H4.662a.5.5 0 0 1-.395-.193L.105 10.453a.5.5 0 0 1-.093-.415l1.485-6.676a.5.5 0 0 1 .267-.34L7.779.053z"/>
        </g>
    </svg>
    <svg id="bi-hexagon" viewBox="-1 -1 17.5 17.5">
        <g class="icon">
            <path fill-rule="evenodd" d="M8.5.134a1 1 0 0 0-1 0l-6 3.577a1 1 0 0 0-.5.866v6.846a1 1 0 0 0 .5.866l6 3.577a1 1 0 0 0 1 0l6-3.577a1 1 0 0 0 .5-.866V4.577a1 1 0 0 0-.5-.866L8.5.134z"/>
        </g>
    </svg>
    <svg id="bi-octagon" viewBox="-1 -1 17.5 17.5">
        <g class="icon">
            <path d="M11.107 0a.5.5 0 0 1 .353.146l4.394 4.394a.5.5 0 0 1 .146.353v6.214a.5.5 0 0 1-.146.353l-4.394 4.394a.5.5 0 0 1-.353.146H4.893a.5.5 0 0 1-.353-.146L.146 11.46A.5.5 0 0 1 0 11.107V4.893a.5.5 0 0 1 .146-.353L4.54.146A.5.5 0 0 1 4.893 0h6.214z"/>
        </g>
    </svg>
    <svg id="bi-pentagon" viewBox="-1 -1 17.5 17.5">
        <g class="icon">
            <path d="m8 0 8 6.5-3 9.5H3L0 6.5 8 0z"/>
        </g>
    </svg>
    <svg id="bi-pig" viewBox="-1 -1 17.5 17.5">
        <g class="icon">
            <path d="M7.964 1.527c-2.977 0-5.571 1.704-6.32 4.125h-.55A1 1 0 0 0 .11 6.824l.254 1.46a1.5 1.5 0 0 0 1.478 1.243h.263c.3.513.688.978 1.145 1.382l-.729 2.477a.5.5 0 0 0 .48.641h2a.5.5 0 0 0 .471-.332l.482-1.351c.635.173 1.31.267 2.011.267.707 0 1.388-.095 2.028-.272l.543 1.372a.5.5 0 0 0 .465.316h2a.5.5 0 0 0 .478-.645l-.761-2.506C13.81 9.895 14.5 8.559 14.5 7.069c0-.145-.007-.29-.02-.431.261-.11.508-.266.705-.444.315.306.815.306.815-.417 0 .223-.5.223-.461-.026a.95.95 0 0 0 .09-.255.7.7 0 0 0-.202-.645.58.58 0 0 0-.707-.098.735.735 0 0 0-.375.562c-.024.243.082.48.32.654a2.112 2.112 0 0 1-.259.153c-.534-2.664-3.284-4.595-6.442-4.595Zm7.173 3.876a.565.565 0 0 1-.098.21.704.704 0 0 1-.044-.025c-.146-.09-.157-.175-.152-.223a.236.236 0 0 1 .117-.173c.049-.027.08-.021.113.012a.202.202 0 0 1 .064.199Zm-8.999-.65a.5.5 0 1 1-.276-.96A7.613 7.613 0 0 1 7.964 3.5c.763 0 1.497.11 2.18.315a.5.5 0 1 1-.287.958A6.602 6.602 0 0 0 7.964 4.5c-.64 0-1.255.09-1.826.254ZM5 6.25a.75.75 0 1 1-1.5 0 .75.75 0 0 1 1.5 0Z"/>
        </g>
    </svg>
    <svg id="bi-cpu" viewBox="-1 -1 17.5 17.5">
        <g class="icon">
            <path d="M6.5 6a.5.5 0 0 0-.5.5v3a.5.5 0 0 0 .5.5h3a.5.5 0 0 0 .5-.5v-3a.5.5 0 0 0-.5-.5h-3z"/>
            <path d="M5.5.5a.5.5 0 0 0-1 0V2A2.5 2.5 0 0 0 2 4.5H.5a.5.5 0 0 0 0 1H2v1H.5a.5.5 0 0 0 0 1H2v1H.5a.5.5 0 0 0 0 1H2v1H.5a.5.5 0 0 0 0 1H2A2.5 2.5 0 0 0 4.5 14v1.5a.5.5 0 0 0 1 0V14h1v1.5a.5.5 0 0 0 1 0V14h1v1.5a.5.5 0 0 0 1 0V14h1v1.5a.5.5 0 0 0 1 0V14a2.5 2.5 0 0 0 2.5-2.5h1.5a.5.5 0 0 0 0-1H14v-1h1.5a.5.5 0 0 0 0-1H14v-1h1.5a.5.5 0 0 0 0-1H14v-1h1.5a.5.5 0 0 0 0-1H14A2.5 2.5 0 0 0 11.5 2V.5a.5.5 0 0 0-1 0V2h-1V.5a.5.5 0 0 0-1 0V2h-1V.5a.5.5 0 0 0-1 0V2h-1V.5zm1 4.5h3A1.5 1.5 0 0 1 11 6.5v3A1.5 1.5 0 0 1 9.5 11h-3A1.5 1.5 0 0 1 5 9.5v-3A1.5 1.5 0 0 1 6.5 5z"/>
        </g>
    </svg>
    <svg id="bi-incognito" viewBox="-1 -1 17.5 17.5">
        <g class="icon">
            <path fill-rule="evenodd" d="m4.736 1.968-.892 3.269-.014.058C2.113 5.568 1 6.006 1 6.5 1 7.328 4.134 8 8 8s7-.672 7-1.5c0-.494-1.113-.932-2.83-1.205a1.032 1.032 0 0 0-.014-.058l-.892-3.27c-.146-.533-.698-.849-1.239-.734C9.411 1.363 8.62 1.5 8 1.5c-.62 0-1.411-.136-2.025-.267-.541-.115-1.093.2-1.239.735Zm.015 3.867a.25.25 0 0 1 .274-.224c.9.092 1.91.143 2.975.143a29.58 29.58 0 0 0 2.975-.143.25.25 0 0 1 .05.498c-.918.093-1.944.145-3.025.145s-2.107-.052-3.025-.145a.25.25 0 0 1-.224-.274ZM3.5 10h2a.5.5 0 0 1 .5.5v1a1.5 1.5 0 0 1-3 0v-1a.5.5 0 0 1 .5-.5Zm-1.5.5c0-.175.03-.344.085-.5H2a.5.5 0 0 1 0-1h3.5a1.5 1.5 0 0 1 1.488 1.312 3.5 3.5 0 0 1 2.024 0A1.5 1.5 0 0 1 10.5 9H14a.5.5 0 0 1 0 1h-.085c.055.156.085.325.085.5v1a2.5 2.5 0 0 1-5 0v-.14l-.21-.07a2.5 2.5 0 0 0-1.58 0l-.21.07v.14a2.5 2.5 0 0 1-5 0v-1Zm8.5-.5h2a.5.5 0 0 1 .5.5v1a1.5 1.5 0 0 1-3 0v-1a.5.5 0 0 1 .5-.5Z"/>
        </g>
    </svg>
    <svg id="bi-robot" viewBox="-1 -1 17.5 17.5">
        <g class="icon">
            <path d="M6 12.5a.5.5 0 0 1 .5-.5h3a.5.5 0 0 1 0 1h-3a.5.5 0 0 1-.5-.5ZM3 8.062C3 6.76 4.235 5.765 5.53 5.886a26.58 26.58 0 0 0 4.94 0C11.765 5.765 13 6.76 13 8.062v1.157a.933.933 0 0 1-.765.935c-.845.147-2.34.346-4.235.346-1.895 0-3.39-.2-4.235-.346A.933.933 0 0 1 3 9.219V8.062Zm4.542-.827a.25.25 0 0 0-.217.068l-.92.9a24.767 24.767 0 0 1-1.871-.183.25.25 0 0 0-.068.495c.55.076 1.232.149 2.02.193a.25.25 0 0 0 .189-.071l.754-.736.847 1.71a.25.25 0 0 0 .404.062l.932-.97a25.286 25.286 0 0 0 1.922-.188.25.25 0 0 0-.068-.495c-.538.074-1.207.145-1.98.189a.25.25 0 0 0-.166.076l-.754.785-.842-1.7a.25.25 0 0 0-.182-.135Z"/>
            <path d="M8.5 1.866a1 1 0 1 0-1 0V3h-2A4.5 4.5 0 0 0 1 7.5V8a1 1 0 0 0-1 1v2a1 1 0 0 0 1 1v1a2 2 0 0 0 2 2h10a2 2 0 0 0 2-2v-1a1 1 0 0 0 1-1V9a1 1 0 0 0-1-1v-.5A4.5 4.5 0 0 0 10.5 3h-2V1.866ZM14 7.5V13a1 1 0 0 1-1 1H3a1 1 0 0 1-1-1V7.5A3.5 3.5 0 0 1 5.5 4h5A3.5 3.5 0 0 1 14 7.5Z"/>
        </g>
    </svg>
</svg>
